# Blender v2.71 (sub 0) OBJ File: 'untitled.blend'
# www.blender.org
mtllib untitled.mtl
o Cube
v -10.000000 -0.200000 -10.000000
v -10.000000 -0.200000 10.000000
v 10.000000 -0.200000 10.000000
v 9.999999 -0.200000 -10.000000
v 9.800000 0.000000 -9.800000
v 9.800000 0.000000 9.800000
v -9.800000 0.000000 9.800000
v -9.800000 0.000000 -9.800000
v 9.999999 0.000000 -10.000000
v 10.000000 0.000000 10.000000
v -10.000000 0.000000 10.000000
v -10.000000 0.000000 -10.000000
v 9.800000 4.000000 -9.800000
v 9.800000 4.000000 9.800000
v -9.800000 4.000000 9.800000
v -9.800000 4.000000 -9.800000
v 9.999999 4.000000 -10.000000
v 10.000000 4.000000 10.000000
v -10.000000 4.000000 10.000000
v -10.000000 4.000000 -10.000000
v 9.800000 4.200000 -9.800000
v 9.800000 4.200000 9.800000
v -9.800000 4.200000 9.800000
v -9.800000 4.200000 -9.800000
v 9.999999 4.200000 -10.000000
v 10.000000 4.200000 10.000000
v -10.000000 4.200000 10.000000
v -10.000000 4.200000 -10.000000
v 2.000000 4.200000 -2.000000
v 2.000000 4.200000 2.000000
v -2.000000 4.200000 2.000000
v -2.000000 4.200000 -2.000000
v -9.800000 -0.200000 -9.800000
v -9.800000 -0.200000 9.800000
v 9.800000 -0.200000 9.800000
v 9.800000 -0.200000 -9.800000
v -2.000000 -0.200000 -2.000000
v -2.000000 -0.200000 2.000000
v 2.000000 -0.200000 2.000000
v 2.000000 -0.200000 -2.000000
v 1.800000 4.200000 -1.800000
v 1.800000 4.200000 1.800000
v -1.800000 4.200000 1.800000
v -1.800000 4.200000 -1.800000
v -1.800000 -0.200000 -1.800000
v -1.800000 -0.200000 1.800000
v 1.800000 -0.200000 1.800000
v 1.800000 -0.200000 -1.800000
v 2.000000 0.000000 -2.000000
v -2.000000 0.000000 -2.000000
v 2.000000 0.000000 2.000000
v -2.000000 0.000000 2.000000
v 2.000000 4.000000 -2.000000
v -2.000000 4.000000 -2.000000
v 2.000000 4.000000 2.000000
v -2.000000 4.000000 2.000000
v 10.000000 0.000000 10.000000
v 10.000000 4.000000 10.000000
vt 0.000000 0.400000
vt 0.000000 0.390234
vt 1.000000 0.390234
vt 1.000000 0.400000
vt 1.000000 0.600000
vt 0.000000 0.600000
vt 1.000000 0.000000
vt 0.990000 0.010000
vt 0.990000 0.990000
vt 1.000000 0.609766
vt 0.000000 0.609766
vt 0.990000 0.400000
vt 0.990000 0.600000
vt 0.010000 0.600000
vt 0.010000 0.400000
vt 1.000000 1.000000
vt 0.010000 0.010000
vt 0.000000 0.000000
vt 0.010000 0.990000
vt 0.000000 1.000000
vt 0.400000 0.400000
vt 0.400000 0.600000
vt 0.600000 0.400000
vt 0.600000 0.600000
vt 0.590000 0.410000
vt 0.590000 0.590000
vt 0.410000 0.410000
vt 0.410000 0.590000
vt 0.410000 0.390234
vt 0.410000 0.609766
vt 0.590000 0.390234
vt 0.590000 0.609766
vn 1.000000 0.000000 -0.000000
vn 0.000000 0.000000 1.000000
vn -1.000000 0.000000 0.000000
vn 0.000000 -1.000000 0.000000
vn 0.000000 0.000000 -1.000000
vn 0.000000 1.000000 0.000000
usemtl Material
s off
f 10/1/1 3/2/1 4/3/1
f 9/4/1 17/5/1 18/6/1
f 57/4/2 58/5/2 19/5/2
f 11/1/3 19/6/3 20/5/3
f 11/4/2 2/3/2 3/3/2
f 3/7/4 35/8/4 36/9/4
f 12/4/3 1/3/3 2/2/3
f 9/4/5 4/3/5 1/3/5
f 12/4/5 20/5/5 17/5/5
f 17/5/1 25/10/1 26/11/1
f 58/5/2 26/10/2 27/10/2
f 19/6/3 27/11/3 28/10/3
f 20/5/5 28/10/5 25/10/5
f 8/12/1 16/13/1 15/14/1
f 7/12/5 15/13/5 14/13/5
f 5/15/2 13/14/2 16/14/2
f 6/12/3 14/13/3 13/14/3
f 25/16/6 21/9/6 22/8/6
f 26/7/6 22/8/6 23/17/6
f 27/18/6 23/17/6 24/19/6
f 21/9/6 25/16/6 28/20/6
f 23/17/6 31/21/6 32/22/6
f 35/8/4 39/23/4 40/24/4
f 2/18/4 34/17/4 35/8/4
f 22/8/6 30/23/6 31/21/6
f 24/19/6 32/22/6 29/24/6
f 21/9/6 29/24/6 30/23/6
f 4/16/4 36/9/4 33/19/4
f 1/20/4 33/19/4 34/17/4
f 34/17/4 38/21/4 39/23/4
f 36/9/4 40/24/4 37/22/4
f 33/19/4 37/22/4 38/21/4
f 39/23/4 47/25/4 48/26/4
f 38/21/4 46/27/4 47/25/4
f 40/24/4 48/26/4 45/28/4
f 37/22/4 45/28/4 46/27/4
f 31/21/6 43/27/6 44/28/6
f 30/23/6 42/25/6 43/27/6
f 32/22/6 44/28/6 41/26/6
f 29/24/6 41/26/6 42/25/6
f 45/29/2 48/29/2 41/30/2
f 43/30/1 46/29/1 45/31/1
f 41/30/3 48/29/3 47/31/3
f 42/32/5 47/31/5 46/31/5
f 49/21/5 50/21/5 54/22/5
f 50/23/3 52/21/3 56/22/3
f 6/8/6 51/23/6 52/21/6
f 50/22/6 8/19/6 7/17/6
f 49/24/6 5/9/6 8/19/6
f 5/9/6 49/24/6 51/23/6
f 53/22/1 55/24/1 51/23/1
f 55/24/2 56/24/2 52/23/2
f 13/9/4 53/24/4 54/22/4
f 53/24/4 13/9/4 14/8/4
f 16/19/4 54/22/4 56/21/4
f 15/17/4 56/21/4 55/23/4
f 9/4/1 10/1/1 4/3/1
f 10/1/1 9/4/1 18/6/1
f 11/4/2 57/4/2 19/5/2
f 12/4/3 11/1/3 20/5/3
f 57/4/2 11/4/2 3/3/2
f 4/16/4 3/7/4 36/9/4
f 11/1/3 12/4/3 2/2/3
f 12/4/5 9/4/5 1/3/5
f 9/4/5 12/4/5 17/5/5
f 18/6/1 17/5/1 26/11/1
f 19/5/2 58/5/2 27/10/2
f 20/5/3 19/6/3 28/10/3
f 17/5/5 20/5/5 25/10/5
f 7/15/1 8/12/1 15/14/1
f 6/12/5 7/12/5 14/13/5
f 8/15/2 5/15/2 16/14/2
f 5/15/3 6/12/3 13/14/3
f 26/7/6 25/16/6 22/8/6
f 27/18/6 26/7/6 23/17/6
f 28/20/6 27/18/6 24/19/6
f 24/19/6 21/9/6 28/20/6
f 24/19/6 23/17/6 32/22/6
f 36/9/4 35/8/4 40/24/4
f 3/7/4 2/18/4 35/8/4
f 23/17/6 22/8/6 31/21/6
f 21/9/6 24/19/6 29/24/6
f 22/8/6 21/9/6 30/23/6
f 1/20/4 4/16/4 33/19/4
f 2/18/4 1/20/4 34/17/4
f 35/8/4 34/17/4 39/23/4
f 33/19/4 36/9/4 37/22/4
f 34/17/4 33/19/4 38/21/4
f 40/24/4 39/23/4 48/26/4
f 39/23/4 38/21/4 47/25/4
f 37/22/4 40/24/4 45/28/4
f 38/21/4 37/22/4 46/27/4
f 32/22/6 31/21/6 44/28/6
f 31/21/6 30/23/6 43/27/6
f 29/24/6 32/22/6 41/26/6
f 30/23/6 29/24/6 42/25/6
f 44/30/2 45/29/2 41/30/2
f 44/32/1 43/30/1 45/31/1
f 42/32/3 41/30/3 47/31/3
f 43/32/5 42/32/5 46/31/5
f 53/22/5 49/21/5 54/22/5
f 54/24/3 50/23/3 56/22/3
f 7/17/6 6/8/6 52/21/6
f 52/21/6 50/22/6 7/17/6
f 50/22/6 49/24/6 8/19/6
f 6/8/6 5/9/6 51/23/6
f 49/21/1 53/22/1 51/23/1
f 51/23/2 55/24/2 52/23/2
f 16/19/4 13/9/4 54/22/4
f 55/23/4 53/24/4 14/8/4
f 15/17/4 16/19/4 56/21/4
f 14/8/4 15/17/4 55/23/4
